<svg width="565" height="157" viewBox="0 0 565 157" fill="none" xmlns="http://www.w3.org/2000/svg">
<g clip-path="url(#clip0)">
<path d="M79.0087 70.5379C76.8284 71.8001 45.3633 89.5324 29.3726 98.5419C23.8595 101.65 23.9304 105.852 29.5211 109.036C45.2351 117.99 75.5409 135.26 78.3522 136.906C82.8342 139.526 89.1624 139.472 93.7254 136.909C96.2904 135.468 127.567 117.822 143.13 109.04C148.356 106.09 147.933 101.934 142.175 98.655C126.259 89.5931 95.9832 72.3452 93.6106 70.9395C89.0324 68.2277 82.6773 68.4133 79.0087 70.5379Z" fill="#E6E9ED"/>
<path d="M79.0087 46.9112C76.8284 48.1735 45.3633 65.9074 29.3726 74.917C23.8595 78.0236 23.9304 82.2272 29.5211 85.4098C45.2351 94.3637 75.5409 111.634 78.3522 113.279C82.8342 115.9 89.1624 115.846 93.7254 113.282C96.2904 111.841 127.567 94.1949 143.13 85.4132C148.356 82.4634 147.933 78.3071 142.175 75.0283C126.259 65.9648 95.9832 48.7168 93.6106 47.3128C89.0324 44.601 82.6773 44.7866 79.0087 46.9112Z" fill="#EE85C1"/>
<path d="M79.0087 22.9808C76.8284 24.243 45.3633 41.9769 29.3726 50.9865C23.8595 54.0932 23.9304 58.2951 29.5211 61.4811C45.2351 70.4333 75.5409 87.7031 78.3522 89.3484C82.8342 91.9708 89.1624 91.9168 93.7254 89.3535C96.2904 87.9124 127.567 70.2662 143.13 61.4844C148.356 58.5347 147.933 54.3767 142.175 51.0996C126.259 42.036 95.9832 24.7881 93.6106 23.3841C89.0324 20.6723 82.6773 20.8579 79.0087 22.9808Z" fill="#AC8FEF"/>
<g opacity="0.5" filter="url(#filter0_d)">
<g clip-path="url(#clip1)">
<path d="M82.5329 56.6463C84.4826 57.9313 87.6305 57.9115 89.5639 56.6019C91.4973 55.2923 91.484 53.189 89.5343 51.9039C87.5845 50.6188 84.4366 50.6387 82.5032 51.9483C80.5699 53.2579 80.5831 55.3612 82.5329 56.6463Z" fill="white"/>
<path d="M78.0141 59.7071C73.0561 56.4394 69.3029 53.1921 67.1627 50.309C65.7712 48.4414 64.9333 46.6217 64.7413 45.0506C64.5347 43.386 65.0657 42.0677 66.2721 41.2505C68.5873 39.6824 73.4135 39.8344 79.1888 41.665C83.9185 43.1607 89.1801 45.7246 93.9763 48.8857C98.6882 51.9912 102.555 55.4156 104.85 58.5316C106.199 60.3528 107.016 62.1024 107.235 63.5891C107.463 65.2114 106.96 66.4921 105.781 67.2904C103.375 68.92 98.0792 68.682 91.9526 66.6664C87.6155 65.2431 82.6626 62.7709 78.0141 59.7071ZM92.3097 50.024C87.7597 47.0251 82.6033 44.5026 78.1754 43.1034C72.8563 41.4242 69.2152 41.5221 67.9669 42.3676C66.6699 43.2462 66.5325 45.8862 69.2942 49.5983C71.3213 52.323 74.9196 55.4309 79.6877 58.5735C84.1604 61.5214 88.8886 63.8921 93.0151 65.2418C98.7837 67.1333 102.81 67.0564 104.1 66.1826C104.763 65.7339 105.037 64.8711 104.876 63.7491C104.693 62.454 103.948 60.8911 102.733 59.2422C100.536 56.2846 96.8387 53.009 92.3097 50.024Z" fill="white"/>
<path d="M60.5758 60.8139C59.8585 60.3411 59.379 59.82 59.1513 59.2599C58.2906 57.1456 60.9207 54.4242 66.1998 51.9857C70.5292 49.9836 76.4988 48.2145 83.0183 47.0035C89.4188 45.8167 95.8024 45.271 101 45.4815C104.04 45.6027 106.725 45.9929 108.76 46.6071C110.977 47.2763 112.384 48.2033 112.825 49.2768C113.728 51.4751 110.742 54.428 105.044 56.9721C101 58.7805 95.3027 60.4216 88.9862 61.5985C82.2569 62.8483 76.1536 63.4109 71.3341 63.2261C68.2099 63.1054 65.4269 62.6878 63.3007 62.0227C62.185 61.6788 61.265 61.2681 60.5758 60.8139ZM83.3242 47.7644L83.6372 48.5298C77.4605 49.6778 71.5887 51.4089 67.5386 53.2875C62.6785 55.5362 60.9763 57.6948 61.4387 58.829C61.5525 59.1091 61.8205 59.3975 62.2495 59.6803C63.6489 60.6026 66.7288 61.4583 71.4782 61.6435C76.0315 61.8207 81.8758 61.2737 88.3533 60.0723C94.432 58.9437 99.8847 57.3744 103.719 55.6609C109.082 53.2592 111.007 50.8933 110.523 49.7078C110.274 49.1057 109.297 48.5176 107.761 48.0547C105.985 47.5184 103.588 47.1779 100.835 47.0689C95.8965 46.8708 89.7859 47.3913 83.6302 48.5345L83.3242 47.7644Z" fill="white"/>
<path d="M76.5751 71.3867C74.6622 70.126 73.3796 67.7523 73.0097 64.6194C72.5954 61.1217 73.3105 56.7934 75.0267 52.4166C76.7084 48.1196 79.2256 44.1589 82.1206 41.2488C83.8116 39.5488 85.6659 38.1894 87.4883 37.3122C89.4782 36.3591 91.3808 36.0008 93.0074 36.2807C96.3095 36.8447 98.6337 40.0355 99.0617 44.5953C99.3692 47.8268 98.6248 51.9401 96.9638 56.1761C95.1924 60.6937 92.8494 64.5082 90.1771 67.2017C88.4443 68.9487 86.5063 70.3554 84.5721 71.2614C82.5122 72.2243 80.5465 72.5783 78.8849 72.294C78.0506 72.1542 77.2713 71.8456 76.5751 71.3867ZM77.3263 52.8139C75.6997 56.9608 74.9912 61.2189 75.383 64.4874C75.849 68.4105 77.7808 70.4666 79.4985 70.76C81.2793 71.0669 84.766 69.8142 88.2037 66.3391C90.7228 63.7869 92.9618 60.1368 94.6642 55.7882C96.2632 51.707 96.9807 47.7717 96.6883 44.7085C96.283 40.4153 94.1886 38.1309 92.4078 37.824C91.5034 37.6659 90.2446 37.9453 88.8691 38.6044C87.2841 39.3678 85.625 40.5856 84.101 42.1254C81.3522 44.8896 78.946 48.6811 77.3263 52.8139Z" fill="white"/>
</g>
</g>
<path d="M192.16 30.04H223.6C228.4 30.04 233.16 30.72 237.88 32.08C242.68 33.36 246.96 35.44 250.72 38.32C254.56 41.2 257.68 44.92 260.08 49.48C262.48 53.96 263.68 59.4 263.68 65.8C263.68 73.24 262.36 80 259.72 86.08C257.16 92.16 253.56 97.36 248.92 101.68C244.28 105.92 238.8 109.2 232.48 111.52C226.16 113.84 219.28 115 211.84 115H177.16L192.16 30.04ZM199.84 97.72H212.68C217.64 97.72 222 96.92 225.76 95.32C229.6 93.64 232.76 91.44 235.24 88.72C237.8 85.92 239.72 82.76 241 79.24C242.28 75.64 242.92 71.96 242.92 68.2C242.92 65.32 242.44 62.6 241.48 60.04C240.6 57.4 239.2 55.12 237.28 53.2C235.36 51.28 232.92 49.76 229.96 48.64C227.08 47.52 223.64 46.96 219.64 46.96H208.72L199.84 97.72ZM267.347 115L277.787 55.24H297.107L286.427 115H267.347ZM301.187 35.2C301.187 36.8 300.907 38.28 300.347 39.64C299.787 41 298.987 42.24 297.947 43.36C296.987 44.4 295.827 45.24 294.467 45.88C293.107 46.44 291.627 46.72 290.027 46.72C286.987 46.72 284.467 45.84 282.467 44.08C280.547 42.24 279.587 39.92 279.587 37.12C279.587 33.84 280.667 31.12 282.827 28.96C285.067 26.72 287.787 25.6 290.987 25.6C293.947 25.6 296.387 26.52 298.307 28.36C300.227 30.2 301.187 32.48 301.187 35.2ZM335.26 115H314.38L303.34 55.24H323.62L328.54 94.48H328.9L349.66 55.24H370.54L335.26 115ZM385.865 117.28C385.225 120.88 384.305 124.32 383.105 127.6C381.985 130.88 380.385 133.76 378.305 136.24C376.305 138.72 373.665 140.68 370.385 142.12C367.185 143.56 363.145 144.28 358.265 144.28C356.905 144.28 355.465 144.16 353.945 143.92C352.425 143.76 351.105 143.52 349.985 143.2L353.465 127.24C354.185 127.48 354.905 127.64 355.625 127.72C356.345 127.8 356.985 127.84 357.545 127.84C360.505 127.84 362.625 126.84 363.905 124.84C365.105 122.92 365.985 120.4 366.545 117.28L377.465 55.24H396.785L385.865 117.28ZM400.865 35.2C400.865 36.8 400.585 38.28 400.025 39.64C399.465 41 398.665 42.24 397.625 43.36C396.665 44.4 395.505 45.24 394.145 45.88C392.785 46.44 391.305 46.72 389.705 46.72C386.665 46.72 384.145 45.84 382.145 44.08C380.225 42.24 379.265 39.92 379.265 37.12C379.265 33.84 380.345 31.12 382.505 28.96C384.745 26.72 387.465 25.6 390.665 25.6C393.625 25.6 396.065 26.52 397.985 28.36C399.905 30.2 400.865 32.48 400.865 35.2ZM432.53 116.68C428.21 116.68 424.17 116.08 420.41 114.88C416.73 113.68 413.53 111.96 410.81 109.72C408.17 107.4 406.05 104.64 404.45 101.44C402.93 98.16 402.17 94.48 402.17 90.4C402.17 85.44 403.01 80.72 404.69 76.24C406.37 71.76 408.77 67.84 411.89 64.48C415.09 61.12 418.93 58.44 423.41 56.44C427.89 54.44 432.97 53.44 438.65 53.44C443.05 53.44 447.13 54.04 450.89 55.24C454.65 56.44 457.89 58.2 460.61 60.52C463.33 62.76 465.45 65.52 466.97 68.8C468.57 72 469.37 75.64 469.37 79.72C469.37 84.76 468.53 89.52 466.85 94C465.17 98.48 462.73 102.4 459.53 105.76C456.33 109.12 452.45 111.8 447.89 113.8C443.41 115.72 438.29 116.68 432.53 116.68ZM450.41 81.76C450.41 78.16 449.29 75.16 447.05 72.76C444.89 70.36 441.81 69.16 437.81 69.16C435.25 69.16 432.93 69.68 430.85 70.72C428.77 71.76 427.01 73.16 425.57 74.92C424.13 76.68 423.01 78.72 422.21 81.04C421.41 83.36 421.01 85.8 421.01 88.36C421.01 91.96 422.09 94.96 424.25 97.36C426.41 99.68 429.49 100.84 433.49 100.84C436.05 100.84 438.37 100.36 440.45 99.4C442.53 98.36 444.29 96.96 445.73 95.2C447.25 93.44 448.41 91.4 449.21 89.08C450.01 86.76 450.41 84.32 450.41 81.76ZM505.848 124C504.088 127.12 502.328 129.92 500.568 132.4C498.888 134.88 497.008 136.96 494.928 138.64C492.928 140.32 490.608 141.6 487.968 142.48C485.328 143.36 482.248 143.8 478.728 143.8C474.968 143.8 471.687 143.36 468.887 142.48L471.767 126.64C473.527 127.36 475.408 127.72 477.408 127.72C480.208 127.72 482.368 127 483.888 125.56C485.488 124.2 487.008 122.24 488.448 119.68L491.327 114.76L477.528 55.24H498.528L504.527 94.36H504.768L524.568 55.24H544.968L505.848 124Z" fill="#413263"/>
</g>
<defs>
<filter id="filter0_d" x="34.0227" y="16.2415" width="104.036" height="76.1513" filterUnits="userSpaceOnUse" color-interpolation-filters="sRGB">
<feFlood flood-opacity="0" result="BackgroundImageFix"/>
<feColorMatrix in="SourceAlpha" type="matrix" values="0 0 0 0 0 0 0 0 0 0 0 0 0 0 0 0 0 0 127 0"/>
<feOffset/>
<feGaussianBlur stdDeviation="5"/>
<feColorMatrix type="matrix" values="0 0 0 0 1 0 0 0 0 1 0 0 0 0 1 0 0 0 0.5 0"/>
<feBlend mode="screen" in2="BackgroundImageFix" result="effect1_dropShadow"/>
<feBlend mode="normal" in="SourceGraphic" in2="effect1_dropShadow" result="shape"/>
</filter>
<clipPath id="clip0">
<rect width="565" height="157" fill="white"/>
</clipPath>
<clipPath id="clip1">
<rect width="50.5358" height="50.5358" transform="matrix(0.83496 0.550311 -0.827946 0.560807 85.8636 26.2415)" fill="white"/>
</clipPath>
</defs>
</svg>
