<svg width="274" height="274" viewBox="0 0 274 274" fill="none" xmlns="http://www.w3.org/2000/svg">
<g clip-path="url(#clip0)">
<path d="M123.268 117.681C118.875 120.225 55.4759 155.953 23.2563 174.107C12.1481 180.37 12.2909 188.836 23.5555 195.252C55.2175 213.293 116.28 248.09 121.945 251.405C130.976 256.686 143.726 256.577 152.92 251.412C158.088 248.508 221.107 212.953 252.466 195.259C262.996 189.315 262.143 180.941 250.541 174.334C218.471 156.076 157.47 121.323 152.689 118.491C143.465 113.027 130.66 113.401 123.268 117.681Z" fill="#E6E9ED"/>
<path d="M123.268 70.0762C118.875 72.6195 55.4759 108.351 23.2563 126.505C12.1481 132.764 12.2909 141.234 23.5555 147.647C55.2175 165.688 116.28 200.485 121.945 203.8C130.976 209.08 143.726 208.971 152.92 203.807C158.088 200.903 221.107 165.348 252.466 147.654C262.996 141.71 262.143 133.336 250.541 126.729C218.471 108.467 157.47 73.7143 152.689 70.8854C143.465 65.4214 130.66 65.7954 123.268 70.0762Z" fill="#EE85C1"/>
<path d="M123.268 21.8589C118.875 24.4022 55.4759 60.1342 23.2563 78.2875C12.1481 84.5471 12.2909 93.0135 23.5555 99.4329C55.2175 117.471 116.28 152.268 121.945 155.583C130.976 160.866 143.726 160.758 152.92 155.593C158.088 152.689 221.107 117.134 252.466 99.4397C262.996 93.4963 262.143 85.1184 250.541 78.5153C218.471 60.2532 157.47 25.5005 152.689 22.6716C143.465 17.2075 130.66 17.5816 123.268 21.8589Z" fill="#AC8FEF"/>
<g opacity="0.5" filter="url(#filter0_d)">
<g clip-path="url(#clip1)">
<path d="M130.369 89.6914C134.297 92.2806 140.64 92.2406 144.535 89.6019C148.431 86.9633 148.404 82.7252 144.476 80.136C140.547 77.5467 134.204 77.5868 130.309 80.2254C126.413 82.8641 126.44 87.1021 130.369 89.6914Z" fill="white"/>
<path d="M121.264 95.8586C111.274 89.2745 103.712 82.7316 99.3993 76.9225C96.5957 73.1593 94.9074 69.4928 94.5206 66.3273C94.1043 62.9733 95.1741 60.3171 97.6048 58.6706C102.27 55.5109 111.994 55.8172 123.631 59.5058C133.16 62.5194 143.762 67.6853 153.426 74.0546C162.92 80.3119 170.71 87.2116 175.336 93.4901C178.054 97.1596 179.699 100.685 180.141 103.68C180.6 106.949 179.586 109.53 177.211 111.138C172.364 114.422 161.693 113.942 149.348 109.881C140.61 107.013 130.63 102.032 121.264 95.8586ZM150.068 76.3481C140.9 70.3057 130.511 65.2232 121.589 62.4038C110.871 59.0206 103.535 59.2178 101.02 60.9214C98.4063 62.6916 98.1295 68.0111 103.694 75.4905C107.779 80.9805 115.029 87.2425 124.636 93.5744C133.648 99.5141 143.175 104.291 151.489 107.01C163.112 110.822 171.225 110.667 173.825 108.906C175.159 108.002 175.713 106.264 175.388 104.003C175.019 101.393 173.517 98.2442 171.069 94.9219C166.643 88.9627 159.193 82.3626 150.068 76.3481Z" fill="white"/>
<path d="M86.1274 98.0887C84.6821 97.1361 83.7159 96.0862 83.2573 94.9576C81.523 90.6974 86.8223 85.2142 97.4591 80.3008C106.182 76.2668 118.211 72.7023 131.347 70.2623C144.243 67.8708 157.105 66.7714 167.578 67.1956C173.704 67.4397 179.113 68.2259 183.213 69.4634C187.681 70.8118 190.515 72.6797 191.403 74.8426C193.223 79.272 187.207 85.2217 175.725 90.3479C167.578 93.9917 156.098 97.2981 143.371 99.6696C129.812 102.188 117.515 103.321 107.804 102.949C101.509 102.706 95.9019 101.864 91.6178 100.524C89.3698 99.8313 87.5161 99.0039 86.1274 98.0887ZM131.963 71.7952L132.594 73.3375C120.148 75.6507 108.317 79.1385 100.157 82.9238C90.3641 87.4547 86.9344 91.8041 87.8661 94.0894C88.0954 94.6537 88.6353 95.2348 89.4996 95.8045C92.3194 97.663 98.525 99.387 108.095 99.7603C117.269 100.117 129.045 99.0152 142.096 96.5945C154.344 94.3203 165.331 91.1584 173.056 87.7059C183.862 82.8668 187.741 78.0998 186.766 75.711C186.265 74.4979 184.296 73.3129 181.2 72.3802C177.623 71.2996 172.793 70.6135 167.246 70.394C157.295 69.9948 144.983 71.0436 132.58 73.3471L131.963 71.7952Z" fill="white"/>
<path d="M118.364 119.392C114.51 116.852 111.926 112.069 111.18 105.756C110.346 98.7089 111.786 89.9878 115.244 81.1691C118.633 72.5111 123.705 64.5307 129.538 58.667C132.945 55.2418 136.681 52.5028 140.353 50.7353C144.363 48.8148 148.196 48.0929 151.474 48.6568C158.127 49.7934 162.81 56.2224 163.672 65.4099C164.292 71.9212 162.792 80.2089 159.445 88.7441C155.876 97.8464 151.155 105.532 145.771 110.959C142.279 114.479 138.374 117.314 134.477 119.139C130.327 121.079 126.366 121.793 123.018 121.22C121.337 120.938 119.767 120.316 118.364 119.392ZM119.878 81.9696C116.6 90.3251 115.173 98.9048 115.962 105.49C116.901 113.395 120.794 117.538 124.255 118.129C127.843 118.747 134.868 116.223 141.795 109.221C146.87 104.079 151.382 96.7245 154.812 87.9625C158.034 79.7393 159.479 71.8101 158.89 65.6381C158.074 56.9878 153.854 52.385 150.265 51.7665C148.443 51.448 145.907 52.0108 143.135 53.3389C139.942 54.8771 136.599 57.3307 133.528 60.4333C127.99 66.0028 123.141 73.6423 119.878 81.9696Z" fill="white"/>
</g>
</g>
</g>
<defs>
<filter id="filter0_d" x="42.7747" y="18.429" width="189.324" height="133.139" filterUnits="userSpaceOnUse" color-interpolation-filters="sRGB">
<feFlood flood-opacity="0" result="BackgroundImageFix"/>
<feColorMatrix in="SourceAlpha" type="matrix" values="0 0 0 0 0 0 0 0 0 0 0 0 0 0 0 0 0 0 127 0"/>
<feOffset/>
<feGaussianBlur stdDeviation="5"/>
<feColorMatrix type="matrix" values="0 0 0 0 1 0 0 0 0 1 0 0 0 0 1 0 0 0 0.5 0"/>
<feBlend mode="screen" in2="BackgroundImageFix" result="effect1_dropShadow"/>
<feBlend mode="normal" in="SourceGraphic" in2="effect1_dropShadow" result="shape"/>
</filter>
<clipPath id="clip0">
<rect width="274" height="274" fill="white"/>
</clipPath>
<clipPath id="clip1">
<rect width="101.824" height="101.824" transform="matrix(0.83496 0.550311 -0.827946 0.560807 137.08 28.429)" fill="white"/>
</clipPath>
</defs>
</svg>
